<?xml version="1.0" encoding="UTF-8" standalone="no"?>
<svg xmlns="http://www.w3.org/2000/svg" version="1.1" viewBox="175 405 160 175" width="160" height="175" xmlns:xlink="http://www.w3.org/1999/xlink">
<defs>
<path d="M 248.03 419.18 C 252.01 423.32 259.01 424.58 264.13 427.01 C 272.44 431.40 282.56 432.01 291.34 435.51 C 284.52 434.50 277.76 432.45 271.01 430.97 C 265.29 429.09 259.53 429.17 253.61 428.72 C 251.84 428.67 250.12 428.63 248.41 429.13 C 231.84 433.37 215.32 437.77 198.72 441.92 C 198.83 457.61 198.69 473.31 198.73 489.00 C 199.24 503.36 204.58 517.24 213.68 528.34 C 218.27 534.34 224.10 538.53 230.28 542.74 C 237.57 547.50 245.26 549.86 253.34 552.82 C 253.41 556.20 253.34 559.57 253.29 562.94 C 242.13 559.73 231.43 555.81 221.78 549.23 C 215.89 545.15 210.84 540.25 206.01 534.99 C 200.87 528.74 196.76 521.69 193.78 514.17 C 190.38 506.07 189.39 497.69 188.72 489.00 C 188.72 470.82 188.83 452.62 188.62 434.44 C 192.36 433.04 196.20 432.34 200.05 431.33 C 212.67 428.25 225.25 425.00 237.80 421.64 C 241.24 420.70 244.45 419.51 248.03 419.18 Z" id="p1" />
<path d="M 248.03 419.18 C 253.59 418.60 259.41 421.07 264.99 421.98 C 270.78 422.90 276.25 424.91 281.99 426.00 C 293.80 428.43 305.46 431.66 317.29 433.98 C 317.49 447.99 317.25 462.00 317.38 476.00 C 317.68 488.29 317.63 501.45 312.96 513.02 C 307.39 528.55 296.35 541.68 282.40 550.40 C 276.25 554.33 269.66 557.23 262.82 559.72 C 259.69 560.81 256.54 562.49 253.29 562.94 C 253.34 559.57 253.41 556.20 253.34 552.82 C 253.37 539.15 253.51 525.46 253.34 511.79 C 257.41 511.74 261.49 511.85 265.57 511.85 C 263.80 502.81 261.61 493.94 260.21 484.81 C 262.99 482.96 265.32 480.79 266.49 477.58 C 268.95 471.74 266.23 464.36 260.91 461.10 C 258.58 459.48 256.02 459.07 253.28 458.61 C 253.51 448.66 253.52 438.68 253.61 428.72 C 259.53 429.17 265.29 429.09 271.01 430.97 C 277.76 432.45 284.52 434.50 291.34 435.51 C 282.56 432.01 272.44 431.40 264.13 427.01 C 259.01 424.58 252.01 423.32 248.03 419.18 Z M 289.45 466.80 C 289.33 470.75 289.44 474.70 289.43 478.66 C 285.38 478.75 281.33 478.72 277.28 478.83 C 277.27 483.12 277.32 487.41 277.32 491.71 C 281.31 491.77 285.31 491.82 289.30 491.96 C 289.38 495.97 289.43 499.98 289.46 503.99 C 293.83 504.27 298.19 504.24 302.55 503.98 C 302.66 500.05 302.74 496.12 302.79 492.19 C 306.81 491.73 310.82 491.85 314.86 491.93 C 314.78 487.52 314.86 483.12 314.77 478.72 C 310.77 478.77 306.77 478.83 302.77 478.62 C 302.73 474.77 302.62 470.93 302.50 467.08 C 298.13 467.29 293.81 466.81 289.45 466.80 Z" id="p2" />
<path d="M 253.61 428.72 C 253.52 438.68 253.51 448.66 253.28 458.61 C 248.53 458.76 243.70 460.97 241.03 465.01 C 238.85 468.53 238.06 472.85 239.51 476.82 C 240.54 480.43 243.29 482.45 245.87 484.96 C 245.02 493.98 242.25 502.68 240.88 511.64 C 245.03 511.82 249.18 511.86 253.34 511.79 C 253.51 525.46 253.37 539.15 253.34 552.82 C 245.26 549.86 237.57 547.50 230.28 542.74 C 224.10 538.53 218.27 534.34 213.68 528.34 C 204.58 517.24 199.24 503.36 198.73 489.00 C 198.69 473.31 198.83 457.61 198.72 441.92 C 215.32 437.77 231.84 433.37 248.41 429.13 C 250.12 428.63 251.84 428.67 253.61 428.72 Z" id="p3" />
<path d="M 253.28 458.61 C 256.02 459.07 258.58 459.48 260.91 461.10 C 266.23 464.36 268.95 471.74 266.49 477.58 C 265.32 480.79 262.99 482.96 260.21 484.81 C 261.61 493.94 263.80 502.81 265.57 511.85 C 261.49 511.85 257.41 511.74 253.34 511.79 C 249.18 511.86 245.03 511.82 240.88 511.64 C 242.25 502.68 245.02 493.98 245.87 484.96 C 243.29 482.45 240.54 480.43 239.51 476.82 C 238.06 472.85 238.85 468.53 241.03 465.01 C 243.70 460.97 248.53 458.76 253.28 458.61 Z" id="p10" />
<path d="M 289.45 466.80 C 293.81 466.81 298.13 467.29 302.50 467.08 C 302.62 470.93 302.73 474.77 302.77 478.62 C 306.77 478.83 310.77 478.77 314.77 478.72 C 314.86 483.12 314.78 487.52 314.86 491.93 C 310.82 491.85 306.81 491.73 302.79 492.19 C 302.74 496.12 302.66 500.05 302.55 503.98 C 298.19 504.24 293.83 504.27 289.46 503.99 C 289.43 499.98 289.38 495.97 289.30 491.96 C 285.31 491.82 281.31 491.77 277.32 491.71 C 277.32 487.41 277.27 483.12 277.28 478.83 C 281.33 478.72 285.38 478.75 289.43 478.66 C 289.44 474.70 289.33 470.75 289.45 466.80 Z" id="p15" />
</defs>
<!-- Fill only - no strokes for cleaner rendering at small sizes -->
<g>
<!-- Shield for dark backgrounds -->
<use fill="#fefefe" xlink:href="#p1" />
<use fill="#c41a1c" xlink:href="#p2" />
<use fill="#15161a" xlink:href="#p3" />
<use fill="#fefefe" xlink:href="#p10" />
<use fill="#fefefe" xlink:href="#p15" />
</g>
</svg>
